<svg id="visual" viewBox="0 0 675 900" width="675" height="900" xmlns="http://www.w3.org/2000/svg" xmlns:xlink="http://www.w3.org/1999/xlink" version="1.1"><rect x="0" y="0" width="675" height="900" fill="#ffffff"></rect><defs><linearGradient id="grad1_0" x1="0%" y1="0%" x2="100%" y2="100%"><stop offset="30%" stop-color="#ffffff" stop-opacity="1"></stop><stop offset="70%" stop-color="#ffffff" stop-opacity="1"></stop></linearGradient></defs><defs><linearGradient id="grad2_0" x1="0%" y1="0%" x2="100%" y2="100%"><stop offset="30%" stop-color="#ffffff" stop-opacity="1"></stop><stop offset="70%" stop-color="#ffffff" stop-opacity="1"></stop></linearGradient></defs><g transform="translate(675, 0)"><path d="M0 506.3C-61.9 488.1 -123.9 470 -185.6 448.1C-247.3 426.2 -308.8 400.6 -358 358C-407.1 315.4 -443.9 255.8 -466.6 193.3C-489.2 130.8 -497.7 65.4 -506.2 0L0 0Z" fill="#6d28d9"></path></g><g transform="translate(0, 900)"><path d="M0 -506.2C65 -498.6 130 -491 193.7 -467.7C257.5 -444.4 320 -405.5 351.4 -351.4C382.8 -297.4 383.1 -228.3 403.7 -167.2C424.4 -106.2 465.3 -53.1 506.3 0L0 0Z" fill="#6d28d9"></path></g></svg>